<svg width="182" height="50" viewBox="0 0 182 50" fill="none" xmlns="http://www.w3.org/2000/svg">
<g clip-path="url(#clip0_980_3701)">
<path d="M72.8 17.3628V19.9472H63.6272V25.2252H69.8516V27.8096H63.6272V35.672H61.0428V17.3628H72.8Z" fill="#215034"/>
<path d="M80.444 23.1868H83.0284V35.672H80.444V34.6528C79.9344 35.0896 79.3156 35.3808 78.5876 35.5264H78.442C78.0416 35.6356 77.6048 35.672 77.168 35.672C76.7312 35.672 76.2944 35.6356 75.894 35.5628H75.7484C74.3652 35.2352 73.3096 34.58 72.5088 33.488C71.708 32.396 71.3076 31.0492 71.3076 29.4476C71.3076 27.846 71.708 26.4628 72.5088 25.3708C73.3096 24.2788 74.4016 23.6236 75.7848 23.3324H75.894C76.2944 23.2232 76.6948 23.1868 77.1316 23.1868C77.5684 23.1868 77.9688 23.1868 78.3692 23.296H78.4784C79.2064 23.478 79.8252 23.7692 80.3712 24.2424V23.2232L80.444 23.1868ZM80.444 29.4112C80.444 28.392 80.2256 27.5548 79.8252 26.9724C79.2792 26.1716 78.4056 25.7712 77.2044 25.7712C76.0032 25.7712 75.0932 26.1716 74.5472 26.9724C74.1468 27.5912 73.9284 28.4284 73.9284 29.4476C73.9284 30.4668 74.1468 31.304 74.5472 31.8864C75.0932 32.6872 75.9668 33.0876 77.2044 33.0876C78.442 33.0876 79.2792 32.6872 79.8252 31.8864C80.2256 31.2676 80.444 30.4668 80.444 29.4476V29.4112Z" fill="#215034"/>
<path d="M88.0517 35.672H85.4673V23.1868H88.0517V23.9512C88.1609 23.8784 88.2701 23.8056 88.3793 23.7328C89.1073 23.3688 89.9081 23.1868 90.7817 23.1868C91.6553 23.1868 92.4925 23.3688 93.1841 23.7328C93.8757 24.0968 94.4581 24.57 94.9313 25.2616C95.3317 24.6064 95.8413 24.0968 96.4601 23.7328C97.1881 23.3688 97.9889 23.1868 98.8625 23.1868C99.7361 23.1868 100.573 23.3688 101.265 23.7328C102.175 24.206 102.903 24.934 103.412 25.9168C103.922 26.8996 104.177 28.1008 104.177 29.4476V35.7084H101.592V29.4476C101.592 28.4284 101.41 27.5912 101.046 27.0088C100.573 26.208 99.8453 25.8076 98.8261 25.8076C97.8069 25.8076 97.0789 26.208 96.6057 26.9724C96.2417 27.5912 96.0961 28.392 96.0597 29.4112V35.7084H93.4753V29.4476C93.4753 28.4284 93.2933 27.5912 92.9657 27.0088C92.4925 26.208 91.7645 25.8076 90.7453 25.8076C89.7261 25.8076 88.9981 26.208 88.5249 26.9724C88.1609 27.5548 87.9789 28.3556 87.9789 29.3748V35.7084L88.0517 35.672Z" fill="#215034"/>
<path d="M111.857 23.1868C113.641 23.1868 115.06 23.7692 116.116 24.8976C117.172 26.026 117.718 27.5548 117.718 29.4476C117.718 31.3404 117.172 32.8692 116.116 33.9976C115.06 35.126 113.641 35.7084 111.857 35.7084C110.074 35.7084 108.654 35.126 107.598 33.9976C106.543 32.8692 105.997 31.3404 105.997 29.4476C105.997 27.5548 106.543 26.026 107.598 24.8976C108.654 23.7692 110.074 23.1868 111.857 23.1868ZM111.857 33.0876C113.095 33.0876 113.968 32.6872 114.514 31.8864C114.915 31.2676 115.133 30.4304 115.133 29.4112C115.133 28.392 114.915 27.5548 114.514 26.936C113.968 26.1352 113.095 25.7348 111.857 25.7348C110.62 25.7348 109.746 26.1352 109.2 26.936C108.8 27.5548 108.581 28.392 108.581 29.4112C108.581 30.4304 108.8 31.2676 109.2 31.8864C109.746 32.6872 110.62 33.0876 111.857 33.0876Z" fill="#215034"/>
<path d="M125.325 23.1868C127.109 23.1868 128.528 23.7692 129.584 24.8976C130.64 26.026 131.186 27.5548 131.186 29.4476C131.186 31.3404 130.64 32.8692 129.584 33.9976C128.528 35.126 127.109 35.7084 125.325 35.7084C123.542 35.7084 122.122 35.126 121.066 33.9976C120.011 32.8692 119.465 31.3404 119.465 29.4476C119.465 27.5548 120.011 26.026 121.066 24.8976C122.122 23.7692 123.542 23.1868 125.325 23.1868ZM125.325 33.0876C126.563 33.0876 127.436 32.6872 127.982 31.8864C128.383 31.2676 128.601 30.4304 128.601 29.4112C128.601 28.392 128.383 27.5548 127.982 26.936C127.436 26.1352 126.563 25.7348 125.325 25.7348C124.088 25.7348 123.214 26.1352 122.668 26.936C122.268 27.5548 122.049 28.392 122.049 29.4112C122.049 30.4304 122.268 31.2676 122.668 31.8864C123.214 32.6872 124.088 33.0876 125.325 33.0876Z" fill="#215034"/>
<path d="M137.774 33.0875C138.029 33.0875 138.284 33.0875 138.502 33.0511C138.793 33.0511 139.048 32.9419 139.266 32.8691C139.812 32.6507 140.067 32.3231 140.067 31.8135C140.067 31.3039 139.812 30.9763 139.266 30.7943C139.048 30.7215 138.793 30.6487 138.502 30.6123C138.284 30.6123 138.029 30.5759 137.774 30.5759C136.172 30.5759 134.971 30.1755 134.134 29.3747C133.442 28.6831 133.078 27.8823 133.078 26.8995C133.078 25.9167 133.442 25.0795 134.134 24.4243C134.971 23.6235 136.172 23.2231 137.774 23.2231C139.376 23.2231 140.468 23.5871 141.268 24.3151C141.96 24.9339 142.36 25.6983 142.397 26.6447L139.812 26.8631C139.812 26.4627 139.521 26.1715 139.048 25.9895C138.866 25.9167 138.648 25.8803 138.393 25.8439C138.174 25.8439 137.956 25.8075 137.738 25.8075C137.519 25.8075 137.264 25.8075 137.082 25.8439C136.828 25.8439 136.609 25.9167 136.391 25.9895C135.881 26.1715 135.626 26.4991 135.626 26.9359C135.626 27.3727 135.881 27.6639 136.391 27.8823C136.573 27.9551 136.791 27.9915 137.082 28.0279C137.301 28.0279 137.519 28.0643 137.738 28.0643C139.376 28.0643 140.65 28.5011 141.523 29.3383C142.251 30.0299 142.615 30.9035 142.615 31.9227C142.615 32.9419 142.251 33.8155 141.523 34.5071C140.65 35.3443 139.376 35.7811 137.738 35.7811C136.1 35.7811 134.935 35.3807 134.061 34.6163C133.333 33.9611 132.933 33.1603 132.896 32.1775L135.481 31.9591C135.481 32.4323 135.772 32.7963 136.318 32.9783C136.536 33.0511 136.791 33.1239 137.082 33.1603C137.301 33.1603 137.556 33.1967 137.81 33.1967L137.774 33.0875Z" fill="#215034"/>
<path d="M147.02 35.672H144.435V17.3628H147.02V23.9512C147.129 23.8784 147.238 23.8056 147.347 23.7328C148.075 23.3688 148.876 23.1868 149.75 23.1868C150.623 23.1868 151.461 23.3688 152.152 23.7328C153.062 24.206 153.79 24.934 154.3 25.9168C154.809 26.8996 155.064 28.1008 155.064 29.4476V35.7084H152.48V29.4476C152.48 28.4284 152.298 27.5912 151.97 27.0088C151.497 26.208 150.769 25.8076 149.75 25.8076C148.731 25.8076 148.003 26.208 147.529 26.9724C147.165 27.5548 146.983 28.3556 146.983 29.3748V35.7084L147.02 35.672Z" fill="#215034"/>
<path d="M168.568 30.5396H159.578C159.905 32.2504 160.997 33.0876 162.854 33.0876C164.71 33.0876 164.273 32.942 164.856 32.6508C165.402 32.3596 165.802 31.9592 166.057 31.486L168.386 32.6144C167.913 33.5608 167.185 34.3252 166.239 34.8348C165.256 35.3808 164.164 35.6356 162.89 35.6356C161.07 35.6356 159.614 35.0532 158.558 33.9248C157.466 32.7964 156.92 31.2676 156.92 29.3748C156.92 27.482 157.466 25.9532 158.522 24.8248C159.578 23.6964 160.997 23.114 162.781 23.114C164.564 23.114 165.62 23.5508 166.639 24.4244C167.658 25.298 168.277 26.4992 168.532 28.028C168.605 28.4284 168.641 28.8288 168.641 29.2292V30.4668L168.568 30.5396ZM165.838 28.1008C165.474 26.5356 164.419 25.7712 162.708 25.7712C160.997 25.7712 159.942 26.5356 159.578 28.1008H165.802H165.838Z" fill="#215034"/>
<path d="M174.756 35.5264C173.373 35.2352 172.318 34.5436 171.517 33.488C170.716 32.396 170.316 31.0492 170.316 29.4476C170.316 27.846 170.716 26.4628 171.517 25.3708C172.318 24.2788 173.41 23.6236 174.793 23.3324H174.902C175.302 23.2232 175.703 23.1868 176.14 23.1868C176.576 23.1868 176.977 23.1868 177.377 23.296H177.486C178.214 23.478 178.833 23.7692 179.379 24.2424V17.3628H181.964V35.672H179.379V34.6528C178.87 35.0896 178.251 35.3808 177.523 35.5264H177.377C176.977 35.6356 176.54 35.672 176.103 35.672C175.666 35.672 175.23 35.6356 174.829 35.5628H174.684L174.756 35.5264ZM176.176 25.7348C174.938 25.7348 174.065 26.1352 173.519 26.936C173.118 27.5548 172.9 28.392 172.9 29.4112C172.9 30.4304 173.118 31.2676 173.519 31.85C174.065 32.6508 174.938 33.0512 176.176 33.0512C177.414 33.0512 178.251 32.6508 178.797 31.85C179.197 31.2312 179.416 30.4304 179.416 29.4112C179.416 28.3556 179.197 27.5548 178.797 26.936C178.251 26.1352 177.377 25.7348 176.176 25.7348Z" fill="#215034"/>
<path d="M26.2808 34.9076C25.5528 34.8712 24.934 35.7448 24.8248 36.8732C24.752 38.0016 25.2616 38.9844 25.9532 39.0208C26.6812 39.0572 27.3 38.1836 27.4092 37.0552C27.5184 35.9268 26.9724 34.944 26.2808 34.9076Z" fill="#215034"/>
<path d="M31.2311 34.9076C30.5031 34.8712 29.8843 35.7448 29.7751 36.8732C29.7023 38.0016 30.2119 38.9844 30.9035 39.0208C31.6315 39.0572 32.2503 38.1836 32.3595 37.0552C32.4323 35.9268 31.9227 34.944 31.2311 34.9076Z" fill="#215034"/>
<path d="M27.6276 49.3948C22.932 49.3948 19.11 48.594 16.198 46.9924C13.5772 45.5364 11.7936 43.4616 10.9928 40.9864C9.75516 37.0916 11.2476 32.5416 14.5964 30.212C14.9968 29.9208 15.4336 29.6296 15.834 29.3748L15.9432 29.302C19.838 26.6448 23.2232 24.388 21.1848 18.7824C20.8936 17.9816 20.6388 17.2536 20.384 16.5256V16.4164C20.1292 15.7976 19.9108 15.2152 19.7288 14.6692C19.5468 14.8512 19.3648 15.0332 19.1828 15.2152C17.0716 17.5084 16.7804 20.0564 16.744 20.7844C16.744 21.0392 16.744 21.2576 16.7804 21.476C17.0716 21.4396 17.3628 21.4032 17.654 21.4032C18.2364 21.4032 18.746 21.5488 19.1464 21.8036C19.838 22.2404 20.2384 22.932 20.3112 23.8056C20.384 25.2252 19.656 25.8804 19.2192 26.1716C18.8552 26.39 18.4548 26.4992 18.018 26.4992C17.5812 26.4992 16.8896 26.3172 16.3436 25.9896C16.016 25.8076 15.6884 25.5528 15.3972 25.2616C14.56 25.6256 13.2496 26.0624 11.5752 26.0624C9.90076 26.0624 8.33556 25.662 6.69756 24.8976L6.55196 24.8248L6.40636 24.7156C3.67636 22.5316 1.74716 17.6176 0.837157 13.7228C-0.400444 8.5904 -0.218443 4.0768 1.27396 1.6016C1.60156 0.8372 2.11116 0.3276 2.76636 0.1092C2.98476 0.0364 3.20316 0 3.42156 0C4.29516 0 5.09596 0.546 5.86036 1.092C6.51556 1.5288 7.24356 2.0384 8.08076 2.366C8.55396 2.548 9.06356 2.548 9.53676 2.548C10.01 2.548 9.93716 2.548 10.1192 2.548C10.3376 2.548 10.5924 2.548 10.8108 2.548C11.5024 2.548 12.4124 2.5844 13.468 2.8756C17.7996 4.0768 19.7288 7.0252 21.1484 10.1192C22.932 9.3548 24.9704 8.918 27.2272 8.8452H27.664H27.846H28.028H28.4648C30.7216 8.9544 32.76 9.3912 34.5436 10.1556C35.9632 7.0616 37.8924 4.0768 42.224 2.912C43.2796 2.6208 44.1896 2.5844 44.8812 2.5844C45.5728 2.5844 45.3544 2.5844 45.5728 2.5844C45.7912 2.5844 45.9732 2.5844 46.1552 2.5844C46.6284 2.5844 47.138 2.5844 47.6112 2.4024C48.4484 2.1112 49.1764 1.6016 49.8316 1.1284C50.596 0.5824 51.3968 0.0364 52.2704 0.0364C53.144 0.0364 52.7072 0.0728 52.9256 0.1456C53.5808 0.364 54.0904 0.8736 54.3816 1.638C55.9104 4.1132 56.0924 8.5904 54.8912 13.6864C53.9812 17.5812 52.052 22.4952 49.322 24.6792L49.1764 24.7884L49.0308 24.8612C47.3928 25.6256 45.7548 26.026 44.1532 26.026C42.4424 26.026 41.132 25.5892 40.3312 25.1888C40.04 25.48 39.7124 25.7348 39.3848 25.9168C38.8388 26.2444 38.2564 26.4264 37.7104 26.4264C37.1644 26.4264 36.8732 26.3172 36.5092 26.0988C36.0724 25.844 35.308 25.1524 35.4172 23.7328C35.4536 22.8592 35.854 22.1312 36.582 21.7308C37.0188 21.476 37.492 21.3304 38.0744 21.3304C38.6568 21.3304 38.6204 21.3304 38.948 21.4032C38.9844 21.1848 38.9844 20.93 38.9844 20.7116C38.948 19.9836 38.6568 17.4356 36.5456 15.1424C36.3636 14.9604 36.1816 14.7784 35.9996 14.5964C35.7812 15.1788 35.5992 15.7612 35.3444 16.38L35.1624 16.8896C34.944 17.5084 34.6892 18.2364 34.4708 18.8552C32.6872 23.842 34.5072 25.844 36.1452 27.5912C36.6184 28.1008 37.0916 28.574 37.4192 29.12C37.5284 29.2656 37.6012 29.4112 37.7104 29.5568C39.0936 31.7044 39.858 33.2696 38.038 38.4384C36.7276 42.1876 34.6164 44.1168 31.7772 44.1168C28.938 44.1168 29.9572 43.8984 29.302 43.7528H29.1928C28.9744 43.68 28.6468 43.5708 28.5376 43.5708C28.3192 43.5708 27.9916 43.6436 27.6276 43.7164C27.0452 43.8256 26.2444 44.0076 25.3708 44.0076C23.0776 44.0076 21.3668 42.77 20.2748 40.3312C19.1828 37.8196 19.292 35.1988 20.6388 33.1604C22.1312 30.8672 25.0068 29.5932 28.6468 29.5932C32.2868 29.5932 33.9612 30.6852 35.3444 31.5952C35.2716 31.486 35.1988 31.3404 35.126 31.2312C35.0168 31.0856 34.944 30.94 34.8348 30.758C34.6528 30.4668 34.3252 30.1028 33.9248 29.7024C32.214 27.846 29.3384 24.7884 31.3768 18.4548L31.6316 17.7268L31.7044 17.5448C31.8864 16.9988 32.1048 16.4164 32.2868 15.8704L32.4324 15.47C32.7236 14.6328 33.0512 13.7592 33.3424 12.922C31.7772 12.2304 29.9208 11.8664 27.8096 11.8664C25.6984 11.8664 23.842 12.2304 22.2768 12.922C22.6044 13.7592 22.8956 14.6328 23.1868 15.47C23.4416 16.198 23.6964 16.926 23.9876 17.7268C26.8632 25.5892 21.476 29.1928 17.5812 31.85C17.108 32.1776 16.7076 32.4324 16.3072 32.7236C14.0504 34.2888 13.0312 37.3828 13.9048 40.04C15.1788 44.0076 20.1292 46.3008 27.5548 46.3008C34.9804 46.3008 40.404 44.5172 42.4788 41.0228C43.316 39.6032 44.0804 37.0916 43.0976 33.0876C42.6244 31.2312 41.6052 29.0108 41.6052 29.0108L44.2624 27.4456C44.2624 27.4456 44.3352 27.5548 44.3716 27.6276C45.3544 29.5568 48.5212 36.8004 45.1724 42.5516C42.5152 47.0652 36.6184 49.3584 27.5912 49.3584L27.6276 49.3948ZM28.574 40.4768C29.0836 40.4768 29.5932 40.6224 30.1392 40.7316C30.758 40.8772 31.304 41.0228 31.85 41.0228C32.7964 41.0228 34.034 40.6224 35.1624 37.4192C35.308 37.0552 35.4172 36.6912 35.5264 36.3636C35.5264 36.0724 35.2716 35.5992 34.7256 35.0532C33.67 33.9612 31.486 32.6872 28.7196 32.6872C25.9532 32.6872 24.206 33.4516 23.296 34.8712C22.568 35.9996 22.5316 37.5284 23.1868 39.0936C23.8784 40.6952 24.6792 40.95 25.4436 40.95C26.208 40.95 26.4628 40.8408 27.0452 40.7316C27.5548 40.6224 28.0644 40.5132 28.5376 40.5132H28.574V40.4768ZM8.11716 22.1312C9.24556 22.6408 10.374 22.932 11.466 22.932C12.558 22.932 13.2496 22.7136 13.7592 22.4952C13.6136 21.8764 13.5408 21.2576 13.5772 20.6024C13.7228 17.9088 15.0696 14.196 18.4548 11.648C17.1444 8.6632 15.6884 6.6612 12.6308 5.824C11.9392 5.642 11.3568 5.6056 10.8108 5.6056C10.2648 5.6056 10.374 5.6056 10.192 5.6056C9.97356 5.6056 9.75516 5.6056 9.53676 5.6056C8.80876 5.6056 7.97156 5.5692 7.06156 5.2416C5.82396 4.8048 4.87756 4.1496 4.11316 3.6036C4.00396 3.5308 3.93116 3.458 3.82196 3.3852C2.87556 5.1688 2.83916 8.8452 3.82196 12.922C4.76836 16.9624 6.51556 20.6388 8.18996 22.0948L8.11716 22.1312ZM41.8964 22.4952C42.4424 22.7136 43.2068 22.932 44.1896 22.932C45.1724 22.932 46.41 22.6772 47.5384 22.1312C49.2128 20.6752 50.96 16.9988 51.9064 12.9584C52.8528 8.8816 52.8528 5.2052 51.9064 3.4216C51.7972 3.4944 51.688 3.5672 51.6152 3.64C50.8508 4.186 49.9044 4.8412 48.6668 5.278C47.7568 5.6056 46.8832 5.642 46.1916 5.642C45.5 5.642 45.7548 5.642 45.5364 5.642C45.318 5.642 45.0996 5.642 44.8812 5.642C44.3352 5.642 43.7528 5.642 43.0612 5.8604C40.0036 6.6976 38.5476 8.6996 37.2372 11.6844C40.6224 14.2324 41.9692 17.9816 42.1148 20.6388C42.1148 21.294 42.1148 21.9128 41.9328 22.5316L41.8964 22.4952Z" fill="#215034"/>
</g>
<defs>
<clipPath id="clip0_980_3701">
<rect width="182" height="49.3948" fill="white"/>
</clipPath>
</defs>
</svg>
