<svg width="22" height="22" viewBox="0 0 22 22" fill="none" xmlns="http://www.w3.org/2000/svg">
<path fill-rule="evenodd" clip-rule="evenodd" d="M15.795 0C19.5063 0 22 2.60521 22 6.48233V15.5177C22 19.3948 19.5063 22 15.795 22H6.20502C2.49367 22 0 19.3948 0 15.5177V6.48233C0 2.60521 2.49367 0 6.20502 0H15.795ZM15.795 1.53488H6.20502C3.36856 1.53488 1.53488 3.476 1.53488 6.48233V15.5177C1.53488 18.524 3.36856 20.4651 6.20502 20.4651H15.795C18.6325 20.4651 20.4651 18.524 20.4651 15.5177V6.48233C20.4651 3.476 18.6325 1.53488 15.795 1.53488ZM11 6.47445C11.4236 6.47445 11.7674 6.81826 11.7674 7.24189V10.2223L14.7518 10.2225C15.1754 10.2225 15.5192 10.5663 15.5192 10.99C15.5192 11.4136 15.1754 11.7574 14.7518 11.7574L11.7674 11.7572V14.7393C11.7674 15.1629 11.4236 15.5067 11 15.5067C10.5764 15.5067 10.2326 15.1629 10.2326 14.7393V11.7572L7.24823 11.7574C6.82358 11.7574 6.48079 11.4136 6.48079 10.99C6.48079 10.5663 6.82358 10.2225 7.24823 10.2225L10.2326 10.2223V7.24189C10.2326 6.81826 10.5764 6.47445 11 6.47445Z" fill="white"/>
</svg>
