<svg width="75" height="74" viewBox="0 0 75 74" fill="none" xmlns="http://www.w3.org/2000/svg">
<circle cx="37.3788" cy="37" r="37" fill="white"/>
<g clip-path="url(#clip0_1537_3865)">
<path d="M60.3443 34.3344C60.3443 29.8175 54.53 26.2617 47.1301 26.2617C39.7301 26.2617 33.9159 29.8175 33.9159 34.3344V38.8993C33.9159 39.7642 34.1081 40.5811 34.4925 41.3499C34.1081 42.1187 33.9159 42.9356 33.9159 43.7525V48.3174C33.9159 52.8342 39.7301 56.39 47.1301 56.39C54.53 56.39 60.3443 52.8342 60.3443 48.3174V43.6083C60.3443 43.6083 60.3443 43.5122 60.3443 43.4642C60.3443 42.7434 60.104 42.0226 59.7676 41.3499C60.152 40.5811 60.3443 39.7642 60.3443 38.8993V34.6227V34.5266C60.3443 34.4785 60.3443 34.4305 60.3443 34.3824V34.3344ZM35.838 43.1759C37.8561 45.146 41.2678 46.5395 45.3041 46.8758C45.3522 46.8758 45.4002 46.8758 45.4963 46.8758C45.6885 46.8758 45.9288 46.8758 46.121 46.8758C46.169 46.8758 46.2651 46.8758 46.3132 46.8758C46.6015 46.8758 46.8418 46.8758 47.1301 46.8758C47.4184 46.8758 47.6586 46.8758 47.947 46.8758C47.995 46.8758 48.0911 46.8758 48.1392 46.8758C48.3314 46.8758 48.5716 46.8758 48.7638 46.8758C48.8119 46.8758 48.8599 46.8758 48.956 46.8758C52.9924 46.5395 56.404 45.146 58.4222 43.1759C58.4222 43.3681 58.4222 43.5122 58.4222 43.7044C58.4222 47.02 53.2326 49.855 47.1301 49.855C41.0275 49.855 35.838 47.02 35.838 43.7044C35.838 40.3889 35.838 43.3681 35.838 43.1759ZM57.7975 40.8213C57.7014 40.9655 57.6053 41.1096 57.4612 41.2538C57.3651 41.3499 57.269 41.4941 57.1728 41.5902C57.1248 41.6382 57.0767 41.6863 57.0287 41.7343C57.0287 41.7343 57.0287 41.7343 56.9806 41.7824C55.3949 43.32 52.656 44.4733 49.4365 44.8577C49.3404 44.8577 49.2443 44.8577 49.1482 44.8577C49.0041 44.8577 48.908 44.8577 48.7638 44.8577C48.5236 44.8577 48.2833 44.8577 48.0911 44.8577C47.995 44.8577 47.9469 44.8577 47.8508 44.8577C47.6106 44.8577 47.3223 44.8577 47.082 44.8577C46.8418 44.8577 46.5535 44.8577 46.3132 44.8577C46.2171 44.8577 46.169 44.8577 46.0729 44.8577C45.8327 44.8577 45.5924 44.8577 45.4002 44.8577C45.2561 44.8577 45.16 44.8577 45.0158 44.8577C44.9197 44.8577 44.8236 44.8577 44.7275 44.8577C41.508 44.4733 38.7691 43.32 37.2315 41.8304C37.2315 41.8304 37.2315 41.8304 37.1834 41.7824C37.1353 41.7343 37.0873 41.6863 37.0392 41.6382C36.9431 41.5421 36.847 41.398 36.7509 41.3019C36.6548 41.1577 36.5107 41.0135 36.4146 40.8694C36.0302 40.2447 35.838 39.62 35.838 38.9473V38.659C38.1444 40.9655 42.3249 42.5031 47.1301 42.5031C51.9352 42.5031 56.1157 41.0135 58.4222 38.659V38.9473C58.4222 39.62 58.23 40.2447 57.8456 40.8694L57.7975 40.8213ZM47.082 28.1838C53.2326 28.1838 58.3741 31.0188 58.3741 34.3344C58.3741 37.6499 53.1846 40.485 47.082 40.485C40.9795 40.485 35.7899 37.6499 35.7899 34.3344C35.7899 31.0188 40.9795 28.1838 47.082 28.1838ZM47.082 54.3719C40.9314 54.3719 35.7899 51.5368 35.7899 48.2213V47.933C38.0964 50.2394 42.2769 51.7771 47.082 51.7771C51.8872 51.7771 56.0677 50.2875 58.3741 47.933V48.2213C58.3741 51.5368 53.1846 54.3719 47.082 54.3719Z" fill="#217041"/>
<path d="M32.4263 45.6751C30.7926 46.2037 28.8705 46.492 26.8524 46.492C20.7018 46.492 15.5602 43.657 15.5602 40.3414V40.0531C17.8667 42.3596 22.0472 43.8972 26.8524 43.8972C31.6575 43.8972 30.7445 43.657 32.4263 43.1764C32.4744 42.5518 32.6186 41.9751 32.8588 41.3505C32.8588 41.2544 32.8108 41.1583 32.7627 41.0622C31.0328 41.6388 29.0147 42.0232 26.8524 42.0232C20.7018 42.0232 15.5602 39.1882 15.5602 35.8726C15.5602 32.557 15.5602 35.5362 15.5602 35.344C17.5784 37.3141 20.9901 38.7076 25.0264 39.044C25.0745 39.044 25.1225 39.044 25.2186 39.044C25.4108 39.044 25.6511 39.044 25.8433 39.044C25.8913 39.044 25.9874 39.044 26.0355 39.044C26.3238 39.044 26.5641 39.044 26.8524 39.044C27.1407 39.044 27.3809 39.044 27.6692 39.044C27.7173 39.044 27.8134 39.044 27.8614 39.044C28.0537 39.044 28.2939 39.044 28.4861 39.044C28.5342 39.044 28.5822 39.044 28.6783 39.044C30.0238 38.9479 31.2731 38.7076 32.4263 38.3713V36.3531C31.4173 36.6895 30.3601 36.8817 29.2069 37.0258C29.1108 37.0258 29.0147 37.0258 28.9186 37.0258C28.7744 37.0258 28.6783 37.0258 28.5342 37.0258C28.2939 37.0258 28.0537 37.0258 27.8614 37.0258C27.7653 37.0258 27.7173 37.0258 27.6212 37.0258C27.3809 37.0258 27.0926 37.0258 26.8524 37.0258C26.6121 37.0258 26.3238 37.0258 26.0835 37.0258C25.9874 37.0258 25.9394 37.0258 25.8433 37.0258C25.603 37.0258 25.3628 37.0258 25.1706 37.0258C25.0264 37.0258 24.9303 37.0258 24.7861 37.0258C24.69 37.0258 24.5939 37.0258 24.4978 37.0258C21.2784 36.6414 18.5394 35.4882 17.0018 33.9986C17.0018 33.9986 17.0018 33.9986 16.9537 33.9505C16.9057 33.9025 16.8576 33.8544 16.8096 33.8064C16.7135 33.7103 16.6174 33.5661 16.5213 33.47C16.4252 33.3259 16.281 33.1817 16.1849 33.0376C15.8005 32.4129 15.6083 31.7882 15.6083 31.1155V30.8272C17.9148 33.1337 22.0953 34.6713 26.9004 34.6713C31.7056 34.6713 30.7926 34.4311 32.4744 33.9505C32.5224 33.1817 32.7147 32.4609 33.051 31.7402C31.2731 32.3648 29.1588 32.7492 26.9004 32.7492C20.7498 32.7492 15.6083 29.9142 15.6083 26.5987C15.6083 23.2831 20.7498 20.3039 26.8524 20.3039C32.9549 20.3039 38.1445 23.1389 38.1445 26.4545C38.1445 29.7701 38.1445 26.6467 38.1445 26.6948C38.7211 26.4064 39.3938 26.1662 40.0665 25.9259C39.6821 21.6493 34.012 18.3818 26.8524 18.3818C19.6927 18.3818 13.6382 21.9377 13.6382 26.4545V31.0194C13.6382 31.8843 13.8304 32.7012 14.2148 33.47C13.8304 34.2388 13.6382 35.0557 13.6382 35.8726V40.4375C13.6382 44.9543 19.4524 48.5102 26.8524 48.5102C34.2523 48.5102 30.7445 48.2699 32.4263 47.7894V45.7712V45.6751Z" fill="#217041"/>
</g>
<defs>
<clipPath id="clip0_1537_3865">
<rect width="46.7061" height="37.9607" fill="white" transform="translate(13.6382 18.3818)"/>
</clipPath>
</defs>
</svg>
