<svg width="15" height="18" viewBox="0 0 15 18" fill="none" xmlns="http://www.w3.org/2000/svg">
<path d="M9.12018 14.4494H9.87992C9.98067 14.4494 10.0773 14.4063 10.1485 14.3296C10.2198 14.2529 10.2598 14.1488 10.2598 14.0403V6.67667C10.2598 6.56817 10.2198 6.46412 10.1485 6.3874C10.0773 6.31068 9.98067 6.26758 9.87992 6.26758H9.12018C9.01943 6.26758 8.92281 6.31068 8.85157 6.3874C8.78033 6.46412 8.74031 6.56817 8.74031 6.67667V14.0403C8.74031 14.1488 8.78033 14.2529 8.85157 14.3296C8.92281 14.4063 9.01943 14.4494 9.12018 14.4494ZM14.3117 2.99485H11.703L10.6267 1.0619C10.4916 0.819515 10.3005 0.61895 10.0721 0.479745C9.84363 0.34054 9.58558 0.267444 9.32309 0.267578H6.13155C5.86917 0.267561 5.61126 0.340714 5.38292 0.479913C5.15459 0.619112 4.96361 0.819614 4.8286 1.0619L3.75167 2.99485H1.14291C1.00858 2.99485 0.879748 3.05232 0.784762 3.15461C0.689776 3.2569 0.636414 3.39564 0.636414 3.54031L0.636414 4.08576C0.636414 4.23042 0.689776 4.36916 0.784762 4.47145C0.879748 4.57375 1.00858 4.63121 1.14291 4.63121H1.6494V16.0858C1.6494 16.5198 1.80949 16.936 2.09445 17.2428C2.3794 17.5497 2.76589 17.7221 3.16888 17.7221H12.2858C12.6888 17.7221 13.0752 17.5497 13.3602 17.2428C13.6452 16.936 13.8052 16.5198 13.8052 16.0858V4.63121H14.3117C14.4461 4.63121 14.5749 4.57375 14.6699 4.47145C14.7649 4.36916 14.8182 4.23042 14.8182 4.08576V3.54031C14.8182 3.39564 14.7649 3.2569 14.6699 3.15461C14.5749 3.05232 14.4461 2.99485 14.3117 2.99485ZM6.07615 2.00315C6.09308 1.9728 6.11703 1.94771 6.14566 1.93032C6.1743 1.91293 6.20663 1.90384 6.2395 1.90394H9.21515C9.24796 1.9039 9.28023 1.91302 9.3088 1.9304C9.33737 1.94779 9.36127 1.97285 9.37817 2.00315L9.93089 2.99485H5.52376L6.07615 2.00315ZM12.2858 16.0858H3.16888V4.63121H12.2858V16.0858ZM5.57473 14.4494H6.33447C6.43521 14.4494 6.53183 14.4063 6.60307 14.3296C6.67431 14.2529 6.71434 14.1488 6.71434 14.0403V6.67667C6.71434 6.56817 6.67431 6.46412 6.60307 6.3874C6.53183 6.31068 6.43521 6.26758 6.33447 6.26758H5.57473C5.47398 6.26758 5.37736 6.31068 5.30612 6.3874C5.23488 6.46412 5.19486 6.56817 5.19486 6.67667V14.0403C5.19486 14.1488 5.23488 14.2529 5.30612 14.3296C5.37736 14.4063 5.47398 14.4494 5.57473 14.4494Z" fill="#053518"/>
</svg>
