<svg width="18" height="17" viewBox="0 0 18 17" fill="none" xmlns="http://www.w3.org/2000/svg">
<path fill-rule="evenodd" clip-rule="evenodd" d="M16.8617 15.7164C17.216 15.7164 17.5036 16.0039 17.5036 16.3582C17.5036 16.7125 17.216 17.0001 16.8617 17.0001H10.6545C10.3002 17.0001 10.0127 16.7125 10.0127 16.3582C10.0127 16.0039 10.3002 15.7164 10.6545 15.7164H16.8617ZM12.8957 1.35089C12.9385 1.38427 14.3703 2.49682 14.3703 2.49682C14.8906 2.80662 15.2971 3.36033 15.4512 4.01587C15.6043 4.66457 15.4931 5.33381 15.1362 5.8995C15.1338 5.90328 15.1315 5.907 15.1232 5.91809L15.1168 5.92666C15.0588 6.003 14.807 6.32141 13.5361 7.91371C13.5243 7.93458 13.5109 7.95413 13.4963 7.97312C13.4749 8.00111 13.4516 8.02685 13.4267 8.05028C13.34 8.15942 13.2484 8.27411 13.1522 8.39468L12.9571 8.63899C12.5546 9.14303 12.0772 9.74074 11.5108 10.4497L11.2202 10.8135C10.1267 12.1821 8.72638 13.9343 6.93247 16.1786C6.53966 16.6681 5.95086 16.9531 5.31842 16.9608L2.20415 17.0002H2.19559C1.89863 17.0002 1.64017 16.7965 1.57085 16.5064L0.869948 13.5359C0.725317 12.9205 0.869092 12.2855 1.26362 11.7926L9.3253 1.70948C9.32873 1.70605 9.3313 1.70178 9.33472 1.69835C10.2188 0.641432 11.8174 0.485676 12.8957 1.35089ZM8.42647 4.88824L2.26577 12.5945C2.11942 12.7776 2.06551 13.0138 2.11942 13.2406L2.70223 15.7096L5.30302 15.6771C5.55035 15.6745 5.77885 15.5641 5.93033 15.3758C6.71038 14.3999 7.69077 13.1732 8.69873 11.9119L9.05535 11.4656L9.41257 11.0186C10.3579 9.83556 11.2918 8.66668 12.0732 7.68832L8.42647 4.88824ZM10.3232 2.51736L9.22836 3.88524L12.8748 6.68452C13.5766 5.80541 14.0383 5.22641 14.081 5.17121C14.2214 4.94357 14.2761 4.62178 14.2025 4.31198C14.1272 3.99448 13.9295 3.7249 13.6446 3.55288C13.5838 3.51095 12.1418 2.39155 12.0973 2.35647C11.5547 1.92172 10.7631 1.99703 10.3232 2.51736Z" fill="#212422"/>
</svg>
