<svg width="270" height="74" viewBox="0 0 270 74" fill="none" xmlns="http://www.w3.org/2000/svg">
<g clip-path="url(#clip0_1537_3646)">
<path d="M108 25.7581V29.5921H94.392V37.4221H103.626V41.2561H94.392V52.9201H90.558V25.7581H108Z" fill="#217041"/>
<path d="M119.34 34.3979H123.174V52.92H119.34V51.4079C118.584 52.0559 117.666 52.4879 116.586 52.7039H116.37C115.776 52.8659 115.128 52.92 114.48 52.92C113.832 52.92 113.184 52.8659 112.59 52.7579H112.374C110.322 52.2719 108.756 51.2999 107.568 49.6799C106.38 48.0599 105.786 46.0619 105.786 43.686C105.786 41.3099 106.38 39.2579 107.568 37.6379C108.756 36.0179 110.376 35.0459 112.428 34.6139H112.59C113.184 34.4519 113.778 34.3979 114.426 34.3979C115.074 34.3979 115.668 34.3979 116.262 34.5599H116.424C117.504 34.8299 118.422 35.2619 119.232 35.9639V34.4519L119.34 34.3979ZM119.34 43.632C119.34 42.12 119.016 40.8779 118.422 40.0139C117.612 38.8259 116.316 38.232 114.534 38.232C112.752 38.232 111.402 38.8259 110.592 40.0139C109.998 40.9319 109.674 42.174 109.674 43.686C109.674 45.198 109.998 46.4399 110.592 47.3039C111.402 48.4919 112.698 49.0859 114.534 49.0859C116.37 49.0859 117.612 48.4919 118.422 47.3039C119.016 46.3859 119.34 45.198 119.34 43.686V43.632Z" fill="#217041"/>
<path d="M130.626 52.9199H126.792V34.3979H130.626V35.532C130.788 35.424 130.95 35.3159 131.112 35.2079C132.192 34.6679 133.38 34.3979 134.676 34.3979C135.972 34.3979 137.214 34.6679 138.24 35.2079C139.266 35.7479 140.13 36.4499 140.832 37.4759C141.426 36.5039 142.182 35.7479 143.1 35.2079C144.18 34.6679 145.368 34.3979 146.664 34.3979C147.96 34.3979 149.202 34.6679 150.228 35.2079C151.578 35.9099 152.658 36.9899 153.414 38.4479C154.17 39.9059 154.548 41.6879 154.548 43.6859V52.9739H150.714V43.6859C150.714 42.1739 150.444 40.9319 149.904 40.0679C149.202 38.8799 148.122 38.2859 146.61 38.2859C145.098 38.2859 144.018 38.8799 143.316 40.0139C142.776 40.9319 142.56 42.1199 142.506 43.6319V52.9739H138.672V43.6859C138.672 42.1739 138.402 40.9319 137.916 40.0679C137.214 38.8799 136.134 38.2859 134.622 38.2859C133.11 38.2859 132.03 38.8799 131.328 40.0139C130.788 40.8779 130.518 42.0659 130.518 43.5779V52.9739L130.626 52.9199Z" fill="#217041"/>
<path d="M165.942 34.3979C168.588 34.3979 170.694 35.2619 172.26 36.9359C173.826 38.6099 174.636 40.8779 174.636 43.6859C174.636 46.4939 173.826 48.7619 172.26 50.4359C170.694 52.1099 168.588 52.9739 165.942 52.9739C163.296 52.9739 161.19 52.1099 159.624 50.4359C158.058 48.7619 157.248 46.4939 157.248 43.6859C157.248 40.8779 158.058 38.6099 159.624 36.9359C161.19 35.2619 163.296 34.3979 165.942 34.3979ZM165.942 49.0859C167.778 49.0859 169.074 48.4919 169.884 47.3039C170.478 46.3859 170.802 45.1439 170.802 43.6319C170.802 42.1199 170.478 40.8779 169.884 39.9599C169.074 38.7719 167.778 38.1779 165.942 38.1779C164.106 38.1779 162.81 38.7719 162 39.9599C161.406 40.8779 161.082 42.1199 161.082 43.6319C161.082 45.1439 161.406 46.3859 162 47.3039C162.81 48.4919 164.106 49.0859 165.942 49.0859Z" fill="#217041"/>
<path d="M185.922 34.3979C188.568 34.3979 190.674 35.2619 192.24 36.9359C193.806 38.6099 194.616 40.8779 194.616 43.6859C194.616 46.4939 193.806 48.7619 192.24 50.4359C190.674 52.1099 188.568 52.9739 185.922 52.9739C183.276 52.9739 181.17 52.1099 179.604 50.4359C178.038 48.7619 177.228 46.4939 177.228 43.6859C177.228 40.8779 178.038 38.6099 179.604 36.9359C181.17 35.2619 183.276 34.3979 185.922 34.3979ZM185.922 49.0859C187.758 49.0859 189.054 48.4919 189.864 47.3039C190.458 46.3859 190.782 45.1439 190.782 43.6319C190.782 42.1199 190.458 40.8779 189.864 39.9599C189.054 38.7719 187.758 38.1779 185.922 38.1779C184.086 38.1779 182.79 38.7719 181.98 39.9599C181.386 40.8779 181.062 42.1199 181.062 43.6319C181.062 45.1439 181.386 46.3859 181.98 47.3039C182.79 48.4919 184.086 49.0859 185.922 49.0859Z" fill="#217041"/>
<path d="M204.39 49.0862C204.768 49.0862 205.146 49.0862 205.47 49.0322C205.902 49.0322 206.28 48.8702 206.604 48.7622C207.414 48.4382 207.792 47.9522 207.792 47.1961C207.792 46.4402 207.414 45.9541 206.604 45.6841C206.28 45.5761 205.902 45.4681 205.47 45.4141C205.146 45.4141 204.768 45.3601 204.39 45.3601C202.014 45.3601 200.232 44.7661 198.99 43.5781C197.964 42.5521 197.424 41.3642 197.424 39.9061C197.424 38.4481 197.964 37.2061 198.99 36.2341C200.232 35.0461 202.014 34.4521 204.39 34.4521C206.766 34.4521 208.386 34.9922 209.574 36.0722C210.6 36.9902 211.194 38.1241 211.248 39.5281L207.414 39.8522C207.414 39.2582 206.982 38.8261 206.28 38.5561C206.01 38.4481 205.686 38.3941 205.308 38.3401C204.984 38.3401 204.66 38.2861 204.336 38.2861C204.012 38.2861 203.634 38.2861 203.364 38.3401C202.986 38.3401 202.662 38.4481 202.338 38.5561C201.582 38.8261 201.204 39.3121 201.204 39.9601C201.204 40.6081 201.582 41.0401 202.338 41.3641C202.608 41.4721 202.932 41.5261 203.364 41.5801C203.688 41.5801 204.012 41.6341 204.336 41.6341C206.766 41.6341 208.656 42.2821 209.952 43.5241C211.032 44.5501 211.572 45.8461 211.572 47.3581C211.572 48.8701 211.032 50.1662 209.952 51.1922C208.656 52.4342 206.766 53.0822 204.336 53.0822C201.906 53.0822 200.178 52.4881 198.882 51.3541C197.802 50.3821 197.208 49.1941 197.154 47.7361L200.988 47.4122C200.988 48.1142 201.42 48.6541 202.23 48.9241C202.554 49.0321 202.932 49.1401 203.364 49.1941C203.688 49.1941 204.066 49.2481 204.444 49.2481L204.39 49.0862Z" fill="#217041"/>
<path d="M218.106 52.9201H214.272V25.7581H218.106V35.5321C218.268 35.4241 218.43 35.3161 218.592 35.2081C219.672 34.6681 220.86 34.3981 222.156 34.3981C223.452 34.3981 224.694 34.6681 225.72 35.2081C227.07 35.9101 228.15 36.9901 228.906 38.4481C229.662 39.9061 230.04 41.6881 230.04 43.6861V52.9741H226.206V43.6861C226.206 42.1741 225.936 40.9321 225.45 40.0681C224.748 38.8801 223.668 38.2861 222.156 38.2861C220.644 38.2861 219.564 38.8801 218.862 40.0141C218.322 40.8781 218.052 42.0661 218.052 43.5781V52.9741L218.106 52.9201Z" fill="#217041"/>
<path d="M250.074 45.306H236.736C237.222 47.844 238.842 49.086 241.596 49.086C244.35 49.086 243.702 48.87 244.566 48.438C245.376 48.006 245.97 47.412 246.348 46.71L249.804 48.384C249.102 49.788 248.022 50.922 246.618 51.678C245.16 52.488 243.54 52.866 241.65 52.866C238.95 52.866 236.79 52.002 235.224 50.328C233.604 48.654 232.794 46.386 232.794 43.578C232.794 40.77 233.604 38.502 235.17 36.828C236.736 35.154 238.842 34.29 241.488 34.29C244.134 34.29 245.7 34.938 247.212 36.234C248.724 37.53 249.642 39.312 250.02 41.58C250.128 42.174 250.182 42.768 250.182 43.362V45.198L250.074 45.306ZM246.024 41.688C245.484 39.366 243.918 38.232 241.38 38.232C238.842 38.232 237.276 39.366 236.736 41.688H245.97H246.024Z" fill="#217041"/>
<path d="M259.254 52.7041C257.202 52.2721 255.636 51.2461 254.448 49.6801C253.26 48.0601 252.666 46.0621 252.666 43.6861C252.666 41.3101 253.26 39.2581 254.448 37.6381C255.636 36.0181 257.256 35.0461 259.308 34.6141H259.47C260.064 34.4521 260.658 34.3981 261.306 34.3981C261.954 34.3981 262.548 34.3981 263.142 34.5601H263.304C264.384 34.8301 265.302 35.2621 266.112 35.9641V25.7581H269.946V52.9201H266.112V51.4081C265.356 52.0561 264.438 52.4881 263.358 52.7041H263.142C262.548 52.8661 261.9 52.9201 261.252 52.9201C260.604 52.9201 259.956 52.8661 259.362 52.7581H259.146L259.254 52.7041ZM261.36 38.1781C259.524 38.1781 258.228 38.7721 257.418 39.9601C256.824 40.8781 256.5 42.1201 256.5 43.6321C256.5 45.1441 256.824 46.3861 257.418 47.2501C258.228 48.4381 259.524 49.0321 261.36 49.0321C263.196 49.0321 264.438 48.4381 265.248 47.2501C265.842 46.3321 266.166 45.1441 266.166 43.6321C266.166 42.0661 265.842 40.8781 265.248 39.9601C264.438 38.7721 263.142 38.1781 261.36 38.1781Z" fill="#217041"/>
<path d="M38.988 51.7861C37.908 51.7321 36.99 53.0281 36.828 54.7021C36.72 56.3761 37.476 57.834 38.502 57.888C39.582 57.942 40.5 56.6461 40.662 54.9721C40.824 53.2981 40.014 51.8401 38.988 51.7861Z" fill="#053518"/>
<path d="M46.332 51.7861C45.252 51.7321 44.334 53.0281 44.172 54.7021C44.064 56.3761 44.82 57.834 45.846 57.888C46.926 57.942 47.844 56.6461 48.006 54.9721C48.114 53.2981 47.358 51.8401 46.332 51.7861Z" fill="#053518"/>
<path d="M40.9861 73.278C34.0201 73.278 28.3501 72.09 24.0301 69.714C20.1421 67.554 17.4961 64.476 16.3081 60.804C14.4721 55.026 16.6861 48.276 21.6541 44.82C22.2481 44.388 22.8961 43.956 23.4901 43.578L23.6521 43.47C29.4301 39.528 34.4521 36.18 31.4281 27.864C30.9961 26.676 30.6181 25.596 30.2401 24.516V24.354C29.8621 23.436 29.5381 22.572 29.2681 21.762C28.9981 22.032 28.7281 22.302 28.4581 22.572C25.3261 25.974 24.8941 29.754 24.8401 30.834C24.8401 31.212 24.8401 31.536 24.8941 31.86C25.3261 31.806 25.7581 31.752 26.1901 31.752C27.0541 31.752 27.8101 31.968 28.4041 32.346C29.4301 32.994 30.0241 34.02 30.1321 35.316C30.2401 37.422 29.1601 38.394 28.5121 38.826C27.9721 39.15 27.3781 39.312 26.7301 39.312C26.0821 39.312 25.0561 39.042 24.2461 38.556C23.7601 38.286 23.2741 37.908 22.8421 37.476C21.6001 38.016 19.6561 38.664 17.1721 38.664C14.6881 38.664 12.3661 38.07 9.93606 36.936L9.72006 36.828L9.50406 36.666C5.45406 33.426 2.59206 26.136 1.24206 20.358C-0.59394 12.744 -0.32394 6.048 1.89006 2.376C2.37606 1.242 3.13206 0.486 4.10406 0.162C4.42806 0.054 4.75206 0 5.07606 0C6.37206 0 7.56006 0.81 8.69406 1.62C9.66606 2.268 10.7461 3.024 11.9881 3.51C12.6901 3.78 13.4461 3.78 14.1481 3.78C14.8501 3.78 14.7421 3.78 15.0121 3.78C15.3361 3.78 15.7141 3.78 16.0381 3.78C17.0641 3.78 18.4141 3.834 19.9801 4.266C26.4061 6.048 29.2681 10.422 31.3741 15.012C34.0201 13.878 37.0441 13.23 40.3921 13.122H41.0401H41.3101H41.5801H42.2281C45.5761 13.284 48.6001 13.932 51.2461 15.066C53.3521 10.476 56.2141 6.048 62.6401 4.32C64.2061 3.888 65.5561 3.834 66.5821 3.834C67.6081 3.834 67.2841 3.834 67.6081 3.834C67.9321 3.834 68.2021 3.834 68.4721 3.834C69.1741 3.834 69.9301 3.834 70.6321 3.564C71.8741 3.132 72.9541 2.376 73.9261 1.674C75.0601 0.864 76.2481 0.054 77.5441 0.054C78.8401 0.054 78.1921 0.108 78.5161 0.216C79.4881 0.54 80.2441 1.296 80.6761 2.43C82.9441 6.102 83.2141 12.744 81.4321 20.304C80.0821 26.082 77.2201 33.372 73.1701 36.612L72.9541 36.774L72.7381 36.882C70.3081 38.016 67.8781 38.61 65.5021 38.61C62.9641 38.61 61.0201 37.962 59.8321 37.368C59.4001 37.8 58.9141 38.178 58.4281 38.448C57.6181 38.934 56.7541 39.204 55.9441 39.204C55.1341 39.204 54.7021 39.042 54.1621 38.718C53.5141 38.34 52.3801 37.314 52.5421 35.208C52.5961 33.912 53.1901 32.832 54.2701 32.238C54.9181 31.86 55.6201 31.644 56.4841 31.644C57.3481 31.644 57.2941 31.644 57.7801 31.752C57.8341 31.428 57.8341 31.05 57.8341 30.726C57.7801 29.646 57.3481 25.866 54.2161 22.464C53.9461 22.194 53.6761 21.924 53.4061 21.654C53.0821 22.518 52.8121 23.382 52.4341 24.3L52.1641 25.056C51.8401 25.974 51.4621 27.054 51.1381 27.972C48.4921 35.37 51.1921 38.34 53.6221 40.932C54.3241 41.688 55.0261 42.39 55.5121 43.2C55.6741 43.416 55.7821 43.632 55.9441 43.848C57.9961 47.034 59.1301 49.356 56.4301 57.024C54.4861 62.586 51.3541 65.448 47.1421 65.448C42.9301 65.448 44.4421 65.124 43.4701 64.908H43.3081C42.9841 64.8 42.4981 64.638 42.3361 64.638C42.0121 64.638 41.5261 64.746 40.9861 64.854C40.1221 65.016 38.9341 65.286 37.6381 65.286C34.2361 65.286 31.6981 63.45 30.0781 59.832C28.4581 56.106 28.6201 52.218 30.6181 49.194C32.8321 45.792 37.0981 43.902 42.4981 43.902C47.8981 43.902 50.3821 45.522 52.4341 46.872C52.3261 46.71 52.2181 46.494 52.1101 46.332C51.9481 46.116 51.8401 45.9 51.6781 45.63C51.4081 45.198 50.9221 44.658 50.3281 44.064C47.7901 41.31 43.5241 36.774 46.5481 27.378L46.9261 26.298L47.0341 26.028C47.3041 25.218 47.6281 24.354 47.8981 23.544L48.1141 22.95C48.5461 21.708 49.0321 20.412 49.4641 19.17C47.1421 18.144 44.3881 17.604 41.2561 17.604C38.1241 17.604 35.3701 18.144 33.0481 19.17C33.5341 20.412 33.9661 21.708 34.3981 22.95C34.7761 24.03 35.1541 25.11 35.5861 26.298C39.8521 37.962 31.8601 43.308 26.0821 47.25C25.3801 47.736 24.7861 48.114 24.1921 48.546C20.8441 50.868 19.3321 55.458 20.6281 59.4C22.5181 65.286 29.8621 68.688 40.8781 68.688C51.8941 68.688 59.9401 66.042 63.0181 60.858C64.2601 58.752 65.3941 55.026 63.9361 49.086C63.2341 46.332 61.7221 43.038 61.7221 43.038L65.6641 40.716C65.6641 40.716 65.7721 40.878 65.8261 40.986C67.2841 43.848 71.9821 54.594 67.0141 63.126C63.0721 69.822 54.3241 73.224 40.9321 73.224L40.9861 73.278ZM42.3901 60.048C43.1461 60.048 43.9021 60.264 44.7121 60.426C45.6301 60.642 46.4401 60.858 47.2501 60.858C48.6541 60.858 50.4901 60.264 52.1641 55.512C52.3801 54.972 52.5421 54.432 52.7041 53.946C52.7041 53.514 52.3261 52.812 51.5161 52.002C49.9501 50.382 46.7101 48.492 42.6061 48.492C38.5021 48.492 35.9101 49.626 34.5601 51.732C33.4801 53.406 33.4261 55.674 34.3981 57.996C35.4241 60.372 36.6121 60.75 37.7461 60.75C38.8801 60.75 39.2581 60.588 40.1221 60.426C40.8781 60.264 41.6341 60.102 42.3361 60.102H42.3901V60.048ZM12.0421 32.832C13.7161 33.588 15.3901 34.02 17.0101 34.02C18.6301 34.02 19.6561 33.696 20.4121 33.372C20.1961 32.454 20.0881 31.536 20.1421 30.564C20.3581 26.568 22.3561 21.06 27.3781 17.28C25.4341 12.852 23.2741 9.882 18.7381 8.64C17.7121 8.37 16.8481 8.316 16.0381 8.316C15.2281 8.316 15.3901 8.316 15.1201 8.316C14.7961 8.316 14.4721 8.316 14.1481 8.316C13.0681 8.316 11.8261 8.262 10.4761 7.776C8.64006 7.128 7.23606 6.156 6.10206 5.346C5.94006 5.238 5.83206 5.13 5.67006 5.022C4.26606 7.668 4.21206 13.122 5.67006 19.17C7.07406 25.164 9.66606 30.618 12.1501 32.778L12.0421 32.832ZM62.1541 33.372C62.9641 33.696 64.0981 34.02 65.5561 34.02C67.0141 34.02 68.8501 33.642 70.5241 32.832C73.0081 30.672 75.6001 25.218 77.0041 19.224C78.4081 13.176 78.4081 7.722 77.0041 5.076C76.8421 5.184 76.6801 5.292 76.5721 5.4C75.4381 6.21 74.0341 7.182 72.1981 7.83C70.8481 8.316 69.5521 8.37 68.5261 8.37C67.5001 8.37 67.8781 8.37 67.5541 8.37C67.2301 8.37 66.9061 8.37 66.5821 8.37C65.7721 8.37 64.9081 8.37 63.8821 8.694C59.3461 9.936 57.1861 12.906 55.2421 17.334C60.2641 21.114 62.2621 26.676 62.4781 30.618C62.4781 31.59 62.4781 32.508 62.2081 33.426L62.1541 33.372Z" fill="#053518"/>
</g>
<defs>
<clipPath id="clip0_1537_3646">
<rect width="270" height="73.278" fill="white"/>
</clipPath>
</defs>
</svg>
