<svg width="49" height="49" viewBox="0 0 49 49" fill="none" xmlns="http://www.w3.org/2000/svg">
<path fill-rule="evenodd" clip-rule="evenodd" d="M34.6707 0C38.5587 0 41.9124 1.29842 44.3665 3.75743C46.9319 6.32524 48.3392 10.0609 48.3343 14.2777L48.3379 31.1944C48.3421 31.2595 48.3428 31.3247 48.3401 31.3898L48.3343 33.9716C48.3343 42.5092 42.8384 48.2469 34.6587 48.2469H13.7534C5.58091 48.2469 0.0898438 42.5092 0.0898438 33.9716V14.2753C0.0898438 5.73769 5.58091 0 13.7534 0H34.6707ZM35.3395 26.1915C33.9178 26.1915 32.2494 28.5441 30.7721 30.6211C28.7459 33.4742 26.6496 36.4265 23.4918 36.4265C21.3568 36.4265 19.4007 35.6044 17.6767 34.8766C14.9348 33.7208 13.692 33.3509 12.4758 34.3519C10.0412 36.3581 7.6356 40.0114 6.53024 41.8091C8.27488 43.6078 10.7532 44.62 13.7534 44.62H34.6587C40.7639 44.62 44.7075 40.4419 44.7075 33.9716L44.7075 32.0397L44.6517 31.9809C42.535 29.8001 38.88 26.1915 35.3395 26.1915ZM34.6707 3.62686H13.7534C7.65789 3.62686 3.7167 7.80742 3.7167 14.2753V33.9716C3.7167 35.5882 3.96272 37.0617 4.42689 38.3627C5.82611 36.2501 7.93931 33.3898 10.1715 31.552C13.1988 29.0615 16.4581 30.4301 19.0839 31.5351C20.629 32.1855 22.0894 32.7996 23.4918 32.7996C24.7781 32.7996 26.3909 30.5268 27.8174 28.5223C29.7977 25.7272 32.0463 22.5646 35.3395 22.5646C38.9536 22.5646 42.227 24.7856 44.7101 26.9897L44.7075 14.2753C44.7123 10.9797 43.7065 8.22814 41.8011 6.32041C40.0409 4.55775 37.5771 3.62686 34.6707 3.62686ZM16.6694 10.1298C20.1294 10.1322 22.9439 12.9467 22.9463 16.4043C22.9463 19.8643 20.1319 22.6812 16.6694 22.6812C13.207 22.6812 10.3925 19.8667 10.3925 16.4067C10.3925 12.9443 13.207 10.1298 16.6694 10.1298ZM16.667 13.7567C15.2066 13.7567 14.0194 14.9439 14.0194 16.4067C14.0194 17.8671 15.2066 19.0543 16.6694 19.0543C18.1298 19.0543 19.3195 17.8671 19.3195 16.4091C19.317 14.9463 18.1274 13.7591 16.667 13.7567Z" fill="#053518"/>
</svg>
