<svg width="13" height="13" viewBox="0 0 13 13" fill="none" xmlns="http://www.w3.org/2000/svg">
<path d="M6.19271 1.54712C7.57738 1.54712 7.75015 1.55222 8.29341 1.5777C8.83617 1.60318 9.20565 1.68829 9.5308 1.81468C9.86715 1.94412 10.1505 2.11943 10.4339 2.40228C10.693 2.65704 10.8935 2.96521 11.0215 3.30535C11.1473 3.62998 11.233 3.99997 11.2584 4.54273C11.2824 5.086 11.289 5.25876 11.289 6.64343C11.289 8.0281 11.2839 8.20086 11.2584 8.74413C11.233 9.28688 11.1473 9.65637 11.0215 9.98151C10.8939 10.3218 10.6933 10.6301 10.4339 10.8846C10.179 11.1436 9.87088 11.3441 9.5308 11.4722C9.20616 11.5981 8.83617 11.6837 8.29341 11.7092C7.75015 11.7331 7.57738 11.7397 6.19271 11.7397C4.80805 11.7397 4.63528 11.7346 4.09202 11.7092C3.54926 11.6837 3.17978 11.5981 2.85463 11.4722C2.51436 11.3445 2.20614 11.144 1.95157 10.8846C1.69237 10.6299 1.49184 10.3217 1.36396 9.98151C1.23757 9.65688 1.15246 9.28688 1.12698 8.74413C1.10303 8.20086 1.09641 8.0281 1.09641 6.64343C1.09641 5.25876 1.1015 5.086 1.12698 4.54273C1.15246 3.99946 1.23757 3.63049 1.36396 3.30535C1.49149 2.965 1.69206 2.65675 1.95157 2.40228C2.20621 2.143 2.51442 1.94245 2.85463 1.81468C3.17978 1.68829 3.54875 1.60318 4.09202 1.5777C4.63528 1.55374 4.80805 1.54712 6.19271 1.54712ZM6.19271 4.09527C5.5169 4.09527 4.86877 4.36374 4.3909 4.84161C3.91303 5.31948 3.64456 5.96762 3.64456 6.64343C3.64456 7.31924 3.91303 7.96737 4.3909 8.44525C4.86877 8.92312 5.5169 9.19158 6.19271 9.19158C6.86853 9.19158 7.51666 8.92312 7.99453 8.44525C8.4724 7.96737 8.74087 7.31924 8.74087 6.64343C8.74087 5.96762 8.4724 5.31948 7.99453 4.84161C7.51666 4.36374 6.86853 4.09527 6.19271 4.09527ZM9.50532 3.96787C9.50532 3.79891 9.4382 3.63688 9.31873 3.51741C9.19926 3.39794 9.03723 3.33083 8.86828 3.33083C8.69932 3.33083 8.53729 3.39794 8.41782 3.51741C8.29835 3.63688 8.23124 3.79891 8.23124 3.96787C8.23124 4.13682 8.29835 4.29885 8.41782 4.41832C8.53729 4.53779 8.69932 4.60491 8.86828 4.60491C9.03723 4.60491 9.19926 4.53779 9.31873 4.41832C9.4382 4.29885 9.50532 4.13682 9.50532 3.96787ZM6.19271 5.11454C6.5982 5.11454 6.98708 5.27562 7.27381 5.56234C7.56053 5.84906 7.72161 6.23794 7.72161 6.64343C7.72161 7.04892 7.56053 7.4378 7.27381 7.72452C6.98708 8.01124 6.5982 8.17232 6.19271 8.17232C5.78723 8.17232 5.39835 8.01124 5.11162 7.72452C4.8249 7.4378 4.66382 7.04892 4.66382 6.64343C4.66382 6.23794 4.8249 5.84906 5.11162 5.56234C5.39835 5.27562 5.78723 5.11454 6.19271 5.11454Z" fill="white"/>
</svg>
