<svg width="21" height="21" viewBox="0 0 21 21" fill="none" xmlns="http://www.w3.org/2000/svg">
<path d="M10.1941 0.449219C4.564 0.449219 0 5.01322 0 10.6434C0 16.2735 4.564 20.8375 10.1941 20.8375C15.8243 20.8375 20.3883 16.2735 20.3883 10.6434C20.3883 5.01322 15.8243 0.449219 10.1941 0.449219ZM14.3408 8.79992C14.3451 8.887 14.3461 8.97407 14.3461 9.05902C14.3461 11.7137 12.3275 14.7731 8.63423 14.7731C7.54292 14.7749 6.47431 14.4614 5.55687 13.8704C5.71297 13.8896 5.87331 13.897 6.03578 13.897C6.97662 13.897 7.84206 13.5774 8.5291 13.0379C8.11041 13.0297 7.70472 12.8911 7.36857 12.6413C7.03242 12.3916 6.78255 12.0432 6.6538 11.6447C6.95448 11.7019 7.26423 11.6899 7.55959 11.6097C7.10516 11.5178 6.69649 11.2715 6.40288 10.9127C6.10928 10.5539 5.94882 10.1046 5.94871 9.64094V9.61651C6.21949 9.76624 6.52956 9.85756 6.85875 9.86818C6.43271 9.58458 6.13112 9.14893 6.01565 8.65033C5.90018 8.15174 5.97956 7.62786 6.23754 7.18585C6.74189 7.80599 7.37085 8.31331 8.08371 8.67495C8.79656 9.03659 9.57742 9.24449 10.3757 9.2852C10.2742 8.8544 10.3179 8.40214 10.5 7.99873C10.682 7.59532 10.9923 7.26335 11.3825 7.05445C11.7727 6.84555 12.2209 6.77142 12.6576 6.84357C13.0943 6.91572 13.4949 7.13013 13.7971 7.45344C14.2465 7.36454 14.6774 7.19971 15.0714 6.96604C14.9216 7.43129 14.6081 7.82635 14.189 8.07784C14.587 8.02989 14.9757 7.92288 15.3422 7.76033C15.073 8.16374 14.7339 8.5158 14.3408 8.79992Z" fill="#053518"/>
</svg>
