<svg width="71" height="77" viewBox="0 0 71 77" fill="none" xmlns="http://www.w3.org/2000/svg">
<path fill-rule="evenodd" clip-rule="evenodd" d="M45.3215 0.0947266C45.4993 0.0947266 45.6735 0.10874 45.8431 0.135649L46.401 0.138727C47.2435 0.138727 48.0487 0.459078 48.6352 1.02645L69.5558 21.3939C70.1051 21.9303 70.4152 22.6521 70.4152 23.397V58.8673C70.4809 68.5511 62.4033 76.421 52.0256 76.7683H18.4104C8.33314 76.5659 0.251172 68.9551 0.00199835 59.6324L0.000488281 17.4261C0.244136 7.85032 8.70162 0.138727 18.8688 0.138727L44.8 0.135649C44.9696 0.10874 45.1438 0.0947266 45.3215 0.0947266ZM42.2218 5.92667L18.8812 5.92821C12.0384 5.92821 6.35599 11.1079 6.19493 17.4956V58.8673C6.04627 65.4325 11.58 70.8361 18.5384 70.9789H51.9182C58.8106 70.7473 64.2658 65.4325 64.2207 58.8866L64.2204 27.0467L55.9264 27.0506C48.3651 27.0313 42.2243 21.2727 42.2243 14.2172L42.2218 5.92667ZM33.6173 27.7256C34.4722 27.7256 35.2465 28.0498 35.8071 28.5738L35.8114 28.5763L45.4995 37.6696C46.7054 38.8044 46.7012 40.6339 45.4913 41.7609C44.2771 42.8879 42.3156 42.8879 41.1097 41.7532L36.7129 37.626L36.7146 53.9366C36.7146 55.5344 35.327 56.8313 33.6173 56.8313C31.9077 56.8313 30.5201 55.5344 30.5201 53.9366L30.5185 37.626L26.1274 41.7532C25.5245 42.3244 24.7275 42.6061 23.9346 42.6061C23.1458 42.6061 22.3529 42.3244 21.75 41.7609C20.54 40.6339 20.5318 38.8044 21.7418 37.6696L31.4216 28.5763L31.5597 28.4573C31.6195 28.4076 31.6813 28.36 31.745 28.3147L31.4216 28.5763C31.5368 28.4683 31.6608 28.3709 31.7918 28.2843C32.3018 27.9329 32.9338 27.7256 33.6173 27.7256ZM48.4163 9.17264L48.4188 14.2172C48.4188 18.0923 51.7885 21.2495 55.9347 21.2611L60.8258 21.2572L48.4163 9.17264Z" fill="#053518"/>
</svg>
