<svg width="16" height="18" viewBox="0 0 16 18" fill="none" xmlns="http://www.w3.org/2000/svg">
<path fill-rule="evenodd" clip-rule="evenodd" d="M10.2413 0.141602C10.2793 0.141602 10.3166 0.144807 10.3528 0.150962L10.4721 0.151666C10.6522 0.151666 10.8244 0.224944 10.9497 0.354725L15.4223 5.0136C15.5398 5.13632 15.6061 5.30142 15.6061 5.47181V13.5853C15.6201 15.8004 13.8932 17.6006 11.6746 17.6801H4.48806C2.33367 17.6338 0.605839 15.8928 0.552569 13.7604L0.552246 4.10602C0.604335 1.91563 2.41244 0.151666 4.58606 0.151666L10.1298 0.150962C10.1661 0.144807 10.2033 0.141602 10.2413 0.141602ZM9.57866 1.47561L4.5887 1.47596C3.1258 1.47596 1.91097 2.66077 1.87654 4.12191V13.5853C1.84476 15.0871 3.0278 16.3231 4.51543 16.3558H11.6516C13.1251 16.3028 14.2914 15.0871 14.2817 13.5898L14.2817 6.30665L12.5085 6.30753C10.892 6.30311 9.57919 4.98588 9.57919 3.372L9.57866 1.47561ZM7.73912 6.46194C7.92187 6.46194 8.08741 6.5361 8.20726 6.65595L8.20819 6.65653L10.2794 8.73656C10.5372 8.99612 10.5363 9.41459 10.2776 9.67239C10.0181 9.93019 9.5987 9.93019 9.3409 9.67063L8.40091 8.72658L8.40127 12.4575C8.40127 12.823 8.10462 13.1196 7.73912 13.1196C7.37361 13.1196 7.07697 12.823 7.07697 12.4575L7.07662 8.72658L6.13787 9.67063C6.00897 9.80129 5.83858 9.86574 5.66907 9.86574C5.50044 9.86574 5.33093 9.80129 5.20203 9.67239C4.94335 9.41459 4.94158 8.99612 5.20026 8.73656L7.2697 6.65653L7.29923 6.6293C7.312 6.61794 7.32522 6.60706 7.33884 6.5967L7.2697 6.65653C7.29432 6.63181 7.32083 6.60955 7.34884 6.58973C7.45787 6.50936 7.59299 6.46194 7.73912 6.46194ZM10.903 2.2181L10.9035 3.372C10.9035 4.2584 11.6239 4.98058 12.5103 4.98323L13.556 4.98235L10.903 2.2181Z" fill="#053518"/>
</svg>
