<svg width="18" height="18" viewBox="0 0 18 18" fill="none" xmlns="http://www.w3.org/2000/svg">
<path d="M17.4001 0.613387C17.2767 0.489783 17.1302 0.391719 16.9689 0.324811C16.8076 0.257902 16.6347 0.223462 16.4601 0.223462C16.2854 0.223462 16.1125 0.257902 15.9512 0.324811C15.7899 0.391719 15.6434 0.489783 15.5201 0.613387L9.00005 7.12005L2.48005 0.600054C2.35661 0.476611 2.21006 0.378691 2.04878 0.311885C1.88749 0.245078 1.71463 0.210693 1.54005 0.210693C1.36548 0.210693 1.19261 0.245078 1.03133 0.311885C0.870044 0.378691 0.723496 0.476611 0.600054 0.600054C0.476611 0.723496 0.378691 0.870044 0.311885 1.03133C0.245078 1.19261 0.210693 1.36548 0.210693 1.54005C0.210693 1.71463 0.245078 1.88749 0.311885 2.04878C0.378691 2.21006 0.476611 2.35661 0.600054 2.48005L7.12005 9.00005L0.600054 15.5201C0.476611 15.6435 0.378691 15.79 0.311885 15.9513C0.245078 16.1126 0.210693 16.2855 0.210693 16.4601C0.210693 16.6346 0.245078 16.8075 0.311885 16.9688C0.378691 17.1301 0.476611 17.2766 0.600054 17.4001C0.723496 17.5235 0.870044 17.6214 1.03133 17.6882C1.19261 17.755 1.36548 17.7894 1.54005 17.7894C1.71463 17.7894 1.88749 17.755 2.04878 17.6882C2.21006 17.6214 2.35661 17.5235 2.48005 17.4001L9.00005 10.8801L15.5201 17.4001C15.6435 17.5235 15.79 17.6214 15.9513 17.6882C16.1126 17.755 16.2855 17.7894 16.4601 17.7894C16.6346 17.7894 16.8075 17.755 16.9688 17.6882C17.1301 17.6214 17.2766 17.5235 17.4001 17.4001C17.5235 17.2766 17.6214 17.1301 17.6882 16.9688C17.755 16.8075 17.7894 16.6346 17.7894 16.4601C17.7894 16.2855 17.755 16.1126 17.6882 15.9513C17.6214 15.79 17.5235 15.6435 17.4001 15.5201L10.8801 9.00005L17.4001 2.48005C17.9067 1.97339 17.9067 1.12005 17.4001 0.613387Z" fill="#215034"/>
</svg>
