<svg width="104" height="81" viewBox="0 0 104 81" fill="none" xmlns="http://www.w3.org/2000/svg">
<circle cx="70" cy="33" r="33" fill="#EBF9DC"/>
<circle cx="4" cy="66" r="4" fill="#FF9F46"/>
<circle cx="100" cy="36" r="4" fill="#88D707"/>
<g clip-path="url(#clip0_555_4287)">
<path d="M53.6098 47.187C50.6958 47.1735 47.8007 46.717 45.0239 45.8331C40.5872 44.3487 37.2919 40.5927 36.3974 36.0006C35.4186 31.2862 37.2024 26.3013 41.2902 22.3246C41.7288 21.8975 42.1846 21.4883 42.6575 21.097C46.8431 17.5929 52.4859 16.3752 57.744 17.8413C62.8345 19.4661 66.3519 24.1182 66.5279 29.4588C66.7185 32.5329 65.7165 35.5622 63.7304 37.9164C62.1986 39.846 59.7167 40.7574 57.3002 40.2778C56.3119 40.0727 55.4497 39.4742 54.912 38.62C54.4295 37.7903 54.3058 36.7999 54.5693 35.877C55.7062 31.5797 56.862 25.0492 56.8734 24.983C56.9542 24.5255 57.2729 24.1459 57.7094 23.9871C58.146 23.8282 58.6341 23.9144 58.9899 24.2131C59.3457 24.5117 59.5152 24.9775 59.4344 25.435C59.3862 25.7067 58.2481 32.1394 57.0833 36.5416C57.0001 36.7855 57.021 37.0529 57.141 37.281C57.3207 37.5297 57.592 37.6969 57.895 37.7456C59.3743 37.9925 60.8686 37.3991 61.7754 36.2045C63.3177 34.3593 64.0905 31.9912 63.9334 29.5915C63.8062 25.3405 61.0186 21.6291 56.9713 20.3225C52.5535 19.1074 47.8207 20.1454 44.317 23.098C43.8993 23.4447 43.4931 23.8077 43.1033 24.1873C41.0823 26.1531 37.8551 30.2323 38.9425 35.4713C39.6732 39.1314 42.2873 42.131 45.8132 43.3551C51.9102 45.3001 60.6711 45.5342 65.2872 39.7947C65.7407 39.2485 66.5485 39.1671 67.1018 39.6119C67.6551 40.0567 67.7493 40.8631 67.3134 41.4235C63.8999 45.6683 58.7057 47.187 53.6098 47.187Z" fill="#215034"/>
<path d="M49.1594 40.4468C47.7852 40.4704 46.4449 40.0198 45.3642 39.1708C42.8689 37.1739 42.8003 33.7048 43.4998 31.3423C43.7354 30.5556 44.0517 29.7953 44.4438 29.0736C45.4192 27.1055 46.9788 25.4869 48.9094 24.4392C51.3135 23.1917 54.2509 23.6648 56.1418 25.604C57.0799 26.6321 57.7865 27.8494 58.214 29.1739C58.4404 29.8461 58.0863 30.5756 57.4182 30.8135C56.75 31.0515 56.0145 30.71 55.7651 30.0461C55.4569 29.0676 54.9446 28.1656 54.262 27.3997C53.1596 26.2723 51.4418 26.0158 50.0581 26.7719C48.6103 27.5884 47.4467 28.8281 46.7236 30.3247C46.4197 30.8854 46.1742 31.4759 45.991 32.0868C45.4858 33.7957 45.5969 36.0258 46.9908 37.1422C48.5148 38.366 51.0858 37.8486 52.5324 36.6007C53.6104 35.6302 54.5366 34.5034 55.2802 33.258C55.521 32.8546 55.9607 32.6124 56.4304 32.6247C56.9001 32.6369 57.3266 32.9017 57.546 33.3172C57.7654 33.7326 57.7436 34.2342 57.4889 34.629C56.6081 36.0965 55.5117 37.4232 54.2363 38.5645C52.8147 39.7639 51.0192 40.4296 49.1594 40.4468Z" fill="#215034"/>
<path d="M87.1 81H16.9C14.7471 80.9976 13.0024 79.2529 13 77.1V29C13 28.4959 13.2915 28.0372 13.7479 27.8231C14.2043 27.609 14.7433 27.6781 15.131 28.0003L47.0292 54.5106C49.9154 56.8942 54.0874 56.8934 56.9728 54.5087L88.868 28.0003C89.2557 27.6774 89.7951 27.608 90.2519 27.8222C90.7087 28.0364 91.0003 28.4955 91 29V77.1C90.9976 79.2529 89.2529 80.9976 87.1 81ZM15.6 31.7707V77.1C15.6009 77.8176 16.1824 78.3991 16.9 78.4H87.1C87.8177 78.3994 88.3994 77.8177 88.4 77.1V31.7707L58.6327 56.5097C54.7839 59.6904 49.219 59.6913 45.3692 56.5116L15.6 31.7707Z" fill="#215034"/>
<path d="M14.3013 30.3C13.7351 30.3005 13.2336 29.9345 13.0616 29.395C12.8895 28.8555 13.0865 28.2667 13.5485 27.9393L25.2485 19.6453C25.8342 19.2394 26.6377 19.3807 27.0497 19.9622C27.4618 20.5438 27.3288 21.3486 26.7515 21.7667L15.0515 30.0607C14.8325 30.2166 14.5702 30.3002 14.3013 30.3Z" fill="#215034"/>
<path d="M89.6987 30.3C89.4298 30.3002 89.1676 30.2166 88.9485 30.0607L77.2485 21.7667C76.6712 21.3486 76.5382 20.5438 76.9503 19.9622C77.3623 19.3807 78.1658 19.2394 78.7515 19.6453L90.4515 27.9393C90.9135 28.2667 91.1105 28.8555 90.9384 29.395C90.7664 29.9345 90.2649 30.3005 89.6987 30.3Z" fill="#215034"/>
<path d="M64.0111 12.1C63.742 12.1001 63.4795 12.0165 63.2601 11.8607L57.0461 7.45368C54.1615 5.01616 49.9464 4.99076 47.0327 7.39335L40.7407 11.8608C40.3618 12.1295 39.8682 12.1757 39.446 11.9819C39.0238 11.7881 38.7371 11.3837 38.6939 10.9212C38.6506 10.4587 38.8574 10.0082 39.2363 9.73946L45.4503 5.33246C49.29 2.19292 54.817 2.21789 58.6282 5.392L64.7642 9.73895C65.2266 10.0663 65.4238 10.6553 65.2516 11.195C65.0795 11.7348 64.5776 12.1009 64.0111 12.1Z" fill="#215034"/>
<path d="M15.145 80.298C14.5971 80.2985 14.1078 79.9554 13.9214 79.4403C13.735 78.9251 13.8916 78.3483 14.313 77.9982L43.979 53.3502C44.3355 53.0471 44.8273 52.9589 45.2669 53.1194C45.7065 53.2798 46.0259 53.6641 46.1032 54.1256C46.1806 54.5871 46.004 55.0545 45.6408 55.3496L15.9748 79.9976C15.7419 80.1917 15.4482 80.2981 15.145 80.298Z" fill="#215034"/>
<path d="M88.8532 80.298C88.5502 80.2982 88.2568 80.1919 88.0242 79.9977L58.3582 55.3497C57.995 55.0547 57.8184 54.5872 57.8957 54.1257C57.9731 53.6642 58.2925 53.2799 58.7321 53.1195C59.1716 52.959 59.6635 53.0472 60.02 53.3503L89.6852 77.9983C90.1065 78.3485 90.2632 78.9252 90.0768 79.4404C89.8904 79.9556 89.401 80.2985 88.8532 80.298Z" fill="#215034"/>
<path d="M78 40.024C77.282 40.024 76.7 39.442 76.7 38.724V12.1101C76.6962 12.1374 76.6441 12.1007 76.557 12.1H27.443C27.3855 12.0965 27.3291 12.1167 27.287 12.1559L27.3 38.724C27.3 39.442 26.718 40.024 26 40.024C25.282 40.024 24.7 39.442 24.7 38.724V12.1C24.7419 10.6257 25.9685 9.46302 27.443 9.5H76.557C78.0314 9.46317 79.2579 10.6257 79.3 12.1V38.724C79.3 39.442 78.718 40.024 78 40.024Z" fill="#215034"/>
</g>
<defs>
<clipPath id="clip0_555_4287">
<rect width="78" height="78" fill="white" transform="translate(13 3)"/>
</clipPath>
</defs>
</svg>
