<svg width="25" height="24" viewBox="0 0 25 24" fill="none" xmlns="http://www.w3.org/2000/svg">
<rect x="0.181763" width="24" height="24" rx="3" fill="#EBF9DC"/>
<path d="M14.1201 18.0002H14.8799C14.9806 18.0002 15.0772 17.9571 15.1485 17.8804C15.2197 17.8036 15.2597 17.6996 15.2597 17.5911V10.2275C15.2597 10.119 15.2197 10.0149 15.1485 9.93818C15.0772 9.86146 14.9806 9.81836 14.8799 9.81836H14.1201C14.0194 9.81836 13.9227 9.86146 13.8515 9.93818C13.7803 10.0149 13.7402 10.119 13.7402 10.2275V17.5911C13.7402 17.6996 13.7803 17.8036 13.8515 17.8804C13.9227 17.9571 14.0194 18.0002 14.1201 18.0002ZM19.3117 6.54563H16.7029L15.6266 4.61268C15.4915 4.3703 15.3005 4.16973 15.072 4.03053C14.8436 3.89132 14.5855 3.81822 14.323 3.81836H11.1315C10.8691 3.81834 10.6112 3.8915 10.3829 4.03069C10.1545 4.16989 9.96355 4.3704 9.82854 4.61268L8.7516 6.54563H6.14285C6.00852 6.54563 5.87969 6.6031 5.7847 6.70539C5.68972 6.80769 5.63635 6.94642 5.63635 7.09109V7.63654C5.63635 7.78121 5.68972 7.91994 5.7847 8.02224C5.87969 8.12453 6.00852 8.182 6.14285 8.182H6.64934V19.6365C6.64934 20.0705 6.80943 20.4867 7.09439 20.7936C7.37934 21.1005 7.76583 21.2729 8.16882 21.2729H17.2857C17.6887 21.2729 18.0752 21.1005 18.3601 20.7936C18.6451 20.4867 18.8052 20.0705 18.8052 19.6365V8.182H19.3117C19.446 8.182 19.5748 8.12453 19.6698 8.02224C19.7648 7.91994 19.8182 7.78121 19.8182 7.63654V7.09109C19.8182 6.94642 19.7648 6.80769 19.6698 6.70539C19.5748 6.6031 19.446 6.54563 19.3117 6.54563ZM11.0761 5.55393C11.093 5.52358 11.117 5.49849 11.1456 5.4811C11.1742 5.46371 11.2066 5.45462 11.2394 5.45472H14.2151C14.2479 5.45468 14.2802 5.4638 14.3087 5.48119C14.3373 5.49857 14.3612 5.52363 14.3781 5.55393L14.9308 6.54563H10.5237L11.0761 5.55393ZM17.2857 19.6365H8.16882V8.182H17.2857V19.6365ZM10.5747 18.0002H11.3344C11.4352 18.0002 11.5318 17.9571 11.603 17.8804C11.6743 17.8036 11.7143 17.6996 11.7143 17.5911V10.2275C11.7143 10.119 11.6743 10.0149 11.603 9.93818C11.5318 9.86146 11.4352 9.81836 11.3344 9.81836H10.5747C10.4739 9.81836 10.3773 9.86146 10.3061 9.93818C10.2348 10.0149 10.1948 10.119 10.1948 10.2275V17.5911C10.1948 17.6996 10.2348 17.8036 10.3061 17.8804C10.3773 17.9571 10.4739 18.0002 10.5747 18.0002Z" fill="#053518"/>
</svg>
