<svg width="20" height="16" viewBox="0 0 20 16" fill="none" xmlns="http://www.w3.org/2000/svg">
<path fill-rule="evenodd" clip-rule="evenodd" d="M11.17 3.00001C11.3766 2.41448 11.7597 1.90744 12.2666 1.5488C12.7735 1.19015 13.3791 0.997559 14 0.997559C14.6209 0.997559 15.2265 1.19015 15.7334 1.5488C16.2403 1.90744 16.6234 2.41448 16.83 3.00001H19C19.2652 3.00001 19.5196 3.10537 19.7071 3.2929C19.8946 3.48044 20 3.73479 20 4.00001C20 4.26523 19.8946 4.51958 19.7071 4.70712C19.5196 4.89465 19.2652 5.00001 19 5.00001H16.83C16.6234 5.58554 16.2403 6.09258 15.7334 6.45122C15.2265 6.80986 14.6209 7.00246 14 7.00246C13.3791 7.00246 12.7735 6.80986 12.2666 6.45122C11.7597 6.09258 11.3766 5.58554 11.17 5.00001H1C0.734784 5.00001 0.48043 4.89465 0.292893 4.70712C0.105357 4.51958 0 4.26523 0 4.00001C0 3.73479 0.105357 3.48044 0.292893 3.2929C0.48043 3.10537 0.734784 3.00001 1 3.00001H11.17ZM3.17 11C3.3766 10.4145 3.75974 9.90744 4.2666 9.5488C4.77346 9.19015 5.37909 8.99756 6 8.99756C6.62091 8.99756 7.22654 9.19015 7.7334 9.5488C8.24026 9.90744 8.6234 10.4145 8.83 11H19C19.2652 11 19.5196 11.1054 19.7071 11.2929C19.8946 11.4804 20 11.7348 20 12C20 12.2652 19.8946 12.5196 19.7071 12.7071C19.5196 12.8947 19.2652 13 19 13H8.83C8.6234 13.5855 8.24026 14.0926 7.7334 14.4512C7.22654 14.8099 6.62091 15.0025 6 15.0025C5.37909 15.0025 4.77346 14.8099 4.2666 14.4512C3.75974 14.0926 3.3766 13.5855 3.17 13H1C0.734784 13 0.48043 12.8947 0.292893 12.7071C0.105357 12.5196 0 12.2652 0 12C0 11.7348 0.105357 11.4804 0.292893 11.2929C0.48043 11.1054 0.734784 11 1 11H3.17ZM14 5.00001C14.2652 5.00001 14.5196 4.89465 14.7071 4.70712C14.8946 4.51958 15 4.26523 15 4.00001C15 3.73479 14.8946 3.48044 14.7071 3.2929C14.5196 3.10537 14.2652 3.00001 14 3.00001C13.7348 3.00001 13.4804 3.10537 13.2929 3.2929C13.1054 3.48044 13 3.73479 13 4.00001C13 4.26523 13.1054 4.51958 13.2929 4.70712C13.4804 4.89465 13.7348 5.00001 14 5.00001ZM6 13C6.26522 13 6.51957 12.8947 6.70711 12.7071C6.89464 12.5196 7 12.2652 7 12C7 11.7348 6.89464 11.4804 6.70711 11.2929C6.51957 11.1054 6.26522 11 6 11C5.73478 11 5.48043 11.1054 5.29289 11.2929C5.10536 11.4804 5 11.7348 5 12C5 12.2652 5.10536 12.5196 5.29289 12.7071C5.48043 12.8947 5.73478 13 6 13Z" fill="white"/>
</svg>
