<svg width="26" height="26" viewBox="0 0 26 26" fill="none" xmlns="http://www.w3.org/2000/svg">
<path fill-rule="evenodd" clip-rule="evenodd" d="M14.521 6.60227C14.7896 5.84135 15.2876 5.18243 15.9466 4.71636C16.6055 4.25028 17.3928 4 18.2 4C19.0072 4 19.7944 4.25028 20.4534 4.71636C21.1124 5.18243 21.6104 5.84135 21.879 6.60227H24.7C25.0448 6.60227 25.3755 6.73919 25.6192 6.98289C25.863 7.22661 26 7.55714 26 7.90181C26 8.24647 25.863 8.57701 25.6192 8.82073C25.3755 9.06443 25.0448 9.20135 24.7 9.20135H21.879C21.6104 9.96227 21.1124 10.6212 20.4534 11.0873C19.7944 11.5533 19.0072 11.8036 18.2 11.8036C17.3928 11.8036 16.6055 11.5533 15.9466 11.0873C15.2876 10.6212 14.7896 9.96227 14.521 9.20135H1.3C0.955219 9.20135 0.624559 9.06443 0.380761 8.82073C0.136964 8.57701 0 8.24647 0 7.90181C0 7.55714 0.136964 7.22661 0.380761 6.98289C0.624559 6.73919 0.955219 6.60227 1.3 6.60227H14.521ZM4.121 16.9986C4.38958 16.2377 4.88766 15.5788 5.54658 15.1127C6.2055 14.6466 6.99282 14.3963 7.8 14.3963C8.60718 14.3963 9.3945 14.6466 10.0534 15.1127C10.7123 15.5788 11.2104 16.2377 11.479 16.9986H24.7C25.0448 16.9986 25.3755 17.1356 25.6192 17.3792C25.863 17.6229 26 17.9535 26 18.2981C26 18.6428 25.863 18.9734 25.6192 19.217C25.3755 19.4608 25.0448 19.5977 24.7 19.5977H11.479C11.2104 20.3586 10.7123 21.0175 10.0534 21.4836C9.3945 21.9497 8.60718 22.2 7.8 22.2C6.99282 22.2 6.2055 21.9497 5.54658 21.4836C4.88766 21.0175 4.38958 20.3586 4.121 19.5977H1.3C0.955219 19.5977 0.624559 19.4608 0.380761 19.217C0.136964 18.9734 0 18.6428 0 18.2981C0 17.9535 0.136964 17.6229 0.380761 17.3792C0.624559 17.1356 0.955219 16.9986 1.3 16.9986H4.121ZM18.2 9.20135C18.5448 9.20135 18.8755 9.06443 19.1192 8.82073C19.363 8.57701 19.5 8.24647 19.5 7.90181C19.5 7.55714 19.363 7.22661 19.1192 6.98289C18.8755 6.73919 18.5448 6.60227 18.2 6.60227C17.8552 6.60227 17.5245 6.73919 17.2808 6.98289C17.037 7.22661 16.9 7.55714 16.9 7.90181C16.9 8.24647 17.037 8.57701 17.2808 8.82073C17.5245 9.06443 17.8552 9.20135 18.2 9.20135ZM7.8 19.5977C8.14479 19.5977 8.47544 19.4608 8.71924 19.217C8.96303 18.9734 9.1 18.6428 9.1 18.2981C9.1 17.9535 8.96303 17.6229 8.71924 17.3792C8.47544 17.1356 8.14479 16.9986 7.8 16.9986C7.45521 16.9986 7.12456 17.1356 6.88076 17.3792C6.63697 17.6229 6.5 17.9535 6.5 18.2981C6.5 18.6428 6.63697 18.9734 6.88076 19.217C7.12456 19.4608 7.45521 19.5977 7.8 19.5977Z" fill="#217041"/>
</svg>
