<svg width="104" height="98" viewBox="0 0 104 98" fill="none" xmlns="http://www.w3.org/2000/svg">
<circle cx="70" cy="33" r="33" fill="#EBF9DC"/>
<circle cx="4" cy="66" r="4" fill="#FF9F46"/>
<circle cx="100" cy="36" r="4" fill="#88D707"/>
<mask id="mask0_555_4286" style="mask-type:luminance" maskUnits="userSpaceOnUse" x="19" y="39" width="67" height="59">
<path d="M19 39.5728H85.3438V97.5013H19V39.5728Z" fill="white"/>
</mask>
<g mask="url(#mask0_555_4286)">
<path d="M23.9183 42.1532C22.6136 42.1532 21.5512 43.2168 21.5512 44.5238V92.5774C21.5512 93.8844 22.6136 94.948 23.9183 94.948H80.4288C81.7335 94.948 82.796 93.8844 82.796 92.5774V44.5238C82.796 43.2168 81.7335 42.1532 80.4288 42.1532H23.9183ZM80.4288 97.5014H23.9183C21.2067 97.5014 19 95.2924 19 92.5774V44.5238C19 41.8088 21.2067 39.5998 23.9183 39.5998H80.4288C83.1404 39.5998 85.3471 41.8088 85.3471 44.5238V92.5774C85.3471 95.2924 83.1404 97.5014 80.4288 97.5014Z" fill="#215034"/>
</g>
<path d="M76.2935 42.1532C75.5901 42.1532 75.0191 41.581 75.0191 40.8765V29.9056C75.0191 26.8226 74.4144 23.8294 73.2229 21.0079C72.0719 18.2862 70.4272 15.8427 68.3326 13.7459C66.2381 11.6491 63.7969 10.0022 61.0785 8.85003C58.2592 7.65746 55.2694 7.05277 52.1899 7.05277C49.1114 7.05277 46.1216 7.65746 43.3034 8.85003C40.584 10.0022 38.1427 11.6491 36.0482 13.7459C33.9536 15.8427 32.3078 18.2862 31.1579 21.0079C29.9664 23.8294 29.3617 26.8226 29.3617 29.9056V40.8765C29.3617 41.581 28.7907 42.1532 28.0873 42.1532C27.3827 42.1532 26.8117 41.581 26.8117 40.8765V29.9056C26.8117 26.4793 27.4837 23.1518 28.8098 20.0139C30.0887 16.9871 31.9174 14.271 34.2453 11.9408C36.5732 9.60954 39.2859 7.77975 42.3094 6.49856C45.444 5.17249 48.7681 4.49936 52.1899 4.49936C55.6116 4.49936 58.9369 5.17249 62.0714 6.49856C65.0949 7.77975 67.8076 9.60954 70.1355 11.9408C72.4634 14.271 74.2921 16.9871 75.571 20.0139C76.8971 23.1518 77.5691 26.4793 77.5691 29.9056V40.8765C77.5691 41.581 76.9981 42.1532 76.2935 42.1532Z" fill="#215034"/>
<path d="M69.201 42.1519C68.4965 42.1519 67.9254 41.5809 67.9254 40.8763V29.9054C67.9254 21.2198 60.8665 14.1519 52.1899 14.1519C43.5132 14.1519 36.4555 21.2198 36.4555 29.9054V40.8763C36.4555 41.5809 35.8844 42.1519 35.1799 42.1519C34.4753 42.1519 33.9043 41.5809 33.9043 40.8763V29.9054C33.9043 25.0151 35.807 20.4188 39.2602 16.9611C42.7145 13.5035 47.3063 11.5996 52.1899 11.5996C57.0746 11.5996 61.6664 13.5035 65.1207 16.9611C68.5739 20.4188 70.4766 25.0151 70.4766 29.9054V40.8763C70.4766 41.5809 69.9056 42.1519 69.201 42.1519Z" fill="#215034"/>
<path d="M55.588 70.1149C55.1381 70.1149 54.7017 69.8748 54.4695 69.4519C54.1307 68.8348 54.3562 68.0585 54.9732 67.7197C56.7952 66.7167 57.9451 64.8039 57.9743 62.7273C58.0191 59.5625 55.4882 56.9283 52.3312 56.8531C50.7572 56.815 49.2729 57.4006 48.1488 58.4989C47.0247 59.5984 46.4054 61.0692 46.4054 62.642C46.4054 64.7557 47.5553 66.701 49.4076 67.7197C50.0246 68.0585 50.2501 68.8348 49.9113 69.453C49.5713 70.07 48.7961 70.2967 48.1791 69.9567C45.5124 68.4893 43.8553 65.6868 43.8553 62.642C43.8553 60.3758 44.7472 58.2555 46.3672 56.6725C47.9861 55.0895 50.1256 54.247 52.3918 54.3008C56.941 54.4085 60.5894 58.205 60.5243 62.7632C60.4817 65.7564 58.8258 68.5129 56.2017 69.9567C56.0065 70.0644 55.7956 70.1149 55.588 70.1149Z" fill="#86D49A"/>
<path d="M52.1898 82.8024C49.614 82.8024 47.5183 80.7045 47.5183 78.1253V68.8383C47.5183 68.1326 48.0893 67.5616 48.7928 67.5616C49.4973 67.5616 50.0684 68.1326 50.0684 68.8383V78.1253C50.0684 79.2965 51.0208 80.2501 52.1898 80.2501C53.36 80.2501 54.3124 79.2965 54.3124 78.1253V68.8383C54.3124 68.1326 54.8835 67.5616 55.5869 67.5616C56.2914 67.5616 56.8625 68.1326 56.8625 68.8383V78.1253C56.8625 80.7045 54.7668 82.8024 52.1898 82.8024Z" fill="#86D49A"/>
</svg>
