<svg width="26" height="26" viewBox="0 0 26 26" fill="none" xmlns="http://www.w3.org/2000/svg">
<path d="M9.68338 23.2333V19.6555C9.68336 18.7455 10.4253 18.006 11.3445 17.9999H14.7116C15.6352 17.9999 16.3839 18.7411 16.3839 19.6555V19.6555V23.2445C16.3837 24.0171 17.0066 24.6486 17.7868 24.6667H20.0316C22.2693 24.6667 24.0833 22.8708 24.0833 20.6555V20.6555V10.4775C24.0713 9.60601 23.658 8.78761 22.9609 8.25525L15.284 2.13289C13.9391 1.06687 12.0272 1.06687 10.6823 2.13289L3.03899 8.26636C2.33926 8.79657 1.92524 9.61632 1.91663 10.4886V20.6555C1.91663 22.8708 3.73065 24.6667 5.96836 24.6667H8.21308C9.01271 24.6667 9.66093 24.025 9.66093 23.2333V23.2333" stroke="#217041" stroke-width="2" stroke-linecap="round" stroke-linejoin="round"/>
</svg>
