<svg width="24" height="24" viewBox="0 0 24 24" fill="none" xmlns="http://www.w3.org/2000/svg">
<rect width="24" height="24" rx="3" fill="#EBF9DC"/>
<path fill-rule="evenodd" clip-rule="evenodd" d="M14.2413 3.69238C14.2793 3.69238 14.3166 3.69559 14.3528 3.70174L14.4721 3.70245C14.6522 3.70245 14.8244 3.77573 14.9497 3.90551L19.4223 8.56438C19.5398 8.6871 19.6061 8.8522 19.6061 9.02259V17.1361C19.6201 19.3512 17.8932 21.1514 15.6746 21.2308H8.48806C6.33367 21.1845 4.60584 19.4436 4.55257 17.3111L4.55225 7.6568C4.60434 5.46641 6.41244 3.70245 8.58606 3.70245L14.1298 3.70174C14.1661 3.69559 14.2033 3.69238 14.2413 3.69238ZM13.5787 5.02639L8.5887 5.02674C7.1258 5.02674 5.91097 6.21155 5.87654 7.67269V17.1361C5.84476 18.6379 7.0278 19.8739 8.51543 19.9065H15.6516C17.1251 19.8536 18.2914 18.6379 18.2817 17.1405L18.2817 9.85743L16.5085 9.85831C14.892 9.8539 13.5792 8.53666 13.5792 6.92279L13.5787 5.02639ZM11.7391 10.0127C11.9219 10.0127 12.0874 10.0869 12.2073 10.2067L12.2082 10.2073L14.2794 12.2873C14.5372 12.5469 14.5363 12.9654 14.2776 13.2232C14.0181 13.481 13.5987 13.481 13.3409 13.2214L12.4009 12.2774L12.4013 16.0083C12.4013 16.3738 12.1046 16.6704 11.7391 16.6704C11.3736 16.6704 11.077 16.3738 11.077 16.0083L11.0766 12.2774L10.1379 13.2214C10.009 13.3521 9.83858 13.4165 9.66907 13.4165C9.50044 13.4165 9.33093 13.3521 9.20203 13.2232C8.94335 12.9654 8.94158 12.5469 9.20026 12.2873L11.2697 10.2073L11.2992 10.1801C11.312 10.1687 11.3252 10.1578 11.3388 10.1475L11.2697 10.2073C11.2943 10.1826 11.3208 10.1603 11.3488 10.1405C11.4579 10.0601 11.593 10.0127 11.7391 10.0127ZM14.903 5.76888L14.9035 6.92279C14.9035 7.80918 15.6239 8.53136 16.5103 8.53401L17.556 8.53313L14.903 5.76888Z" fill="#053518"/>
</svg>
